{
    "asset" : {
        "generator" : "Khronos glTF Blender I/O v1.5.17",
        "version" : "2.0"
    },
    "scene" : 0,
    "scenes" : [
        {
            "name" : "Scene",
            "nodes" : [
                0,
                1,
                2,
                3,
                4,
                5,
                6
            ]
        }
    ],
    "nodes" : [
        {
            "mesh" : 0,
            "name" : "FaceBuilderHead"
        },
        {
            "name" : "fbCamera.002",
            "rotation" : [
                0.6846457123756409,
                0.0072972653433680534,
                -0.008939207531511784,
                0.7287846803665161
            ],
            "translation" : [
                0.24158763885498047,
                0.3788771331310272,
                12.278757095336914
            ]
        },
        {
            "name" : "fbCamera.003",
            "rotation" : [
                0.5292913913726807,
                0.46397989988327026,
                -0.4048612713813782,
                0.5836613774299622
            ],
            "translation" : [
                11.421597480773926,
                1.0018903017044067,
                3.247821092605591
            ]
        },
        {
            "name" : "fbCamera.005",
            "rotation" : [
                0.48827871680259705,
                -0.5088997483253479,
                0.46023988723754883,
                0.5392440557479858
            ],
            "translation" : [
                -10.761931419372559,
                0.8151476383209229,
                1.2286993265151978
            ]
        },
        {
            "name" : "fbCamera.007",
            "rotation" : [
                0.37423184514045715,
                0.5271662473678589,
                -0.2952849864959717,
                0.7034578919410706
            ],
            "translation" : [
                7.431899547576904,
                5.138225078582764,
                2.5176069736480713
            ]
        },
        {
            "name" : "fbCamera.008",
            "rotation" : [
                0.9559324979782104,
                0.04736656695604324,
                -0.03292371705174446,
                0.2878640294075012
            ],
            "translation" : [
                1.4454100131988525,
                -7.5527520179748535,
                5.493311882019043
            ]
        },
        {
            "name" : "fbCamera.009",
            "rotation" : [
                0.7071068286895752,
                0,
                0,
                0.7071067094802856
            ],
            "translation" : [
                0,
                -0.05430281162261963,
                10.30055046081543
            ]
        }
    ],
    "meshes" : [
        {
            "name" : "FaceBuilderHead_mesh",
            "primitives" : [
                {
                    "attributes" : {
                        "POSITION" : 0,
                        "NORMAL" : 1,
                        "TEXCOORD_0" : 2
                    },
                    "indices" : 3
                }
            ]
        }
    ],
    "accessors" : [
        {
            "bufferView" : 0,
            "componentType" : 5126,
            "count" : 17071,
            "max" : [
                0.8373429775238037,
                1.2223728895187378,
                1.2939730882644653
            ],
            "min" : [
                -0.8393643498420715,
                -0.9601647853851318,
                -0.5807265639305115
            ],
            "type" : "VEC3"
        },
        {
            "bufferView" : 1,
            "componentType" : 5126,
            "count" : 17071,
            "type" : "VEC3"
        },
        {
            "bufferView" : 2,
            "componentType" : 5126,
            "count" : 17071,
            "type" : "VEC2"
        },
        {
            "bufferView" : 3,
            "componentType" : 5123,
            "count" : 101778,
            "type" : "SCALAR"
        }
    ],
    "bufferViews" : [
        {
            "buffer" : 0,
            "byteLength" : 204852,
            "byteOffset" : 0
        },
        {
            "buffer" : 0,
            "byteLength" : 204852,
            "byteOffset" : 204852
        },
        {
            "buffer" : 0,
            "byteLength" : 136568,
            "byteOffset" : 409704
        },
        {
            "buffer" : 0,
            "byteLength" : 203556,
            "byteOffset" : 546272
        }
    ],
    "buffers" : [
        {
            "byteLength" : 749828,
            "uri" : "data:application/octet-stream;base64,"
        }
    ]
}
